<svg xmlns="http://www.w3.org/2000/svg" xmlns:xlink="http://www.w3.org/1999/xlink" width="500" zoomAndPan="magnify" viewBox="0 0 375 374.999991" height="500" preserveAspectRatio="xMidYMid meet" version="1.0"><defs><clipPath id="d5e83d69d3"><path d="M 16.988281 64.109375 L 183 64.109375 L 183 310.796875 L 16.988281 310.796875 Z M 16.988281 64.109375 " clip-rule="nonzero"/></clipPath><clipPath id="81ef4e4b3e"><path d="M 192 286 L 358.238281 286 L 358.238281 310.796875 L 192 310.796875 Z M 192 286 " clip-rule="nonzero"/></clipPath><clipPath id="6da6dc43e4"><path d="M 192 232 L 358.238281 232 L 358.238281 278 L 192 278 Z M 192 232 " clip-rule="nonzero"/></clipPath><clipPath id="78944a4f8f"><path d="M 192 178 L 358.238281 178 L 358.238281 243 L 192 243 Z M 192 178 " clip-rule="nonzero"/></clipPath><clipPath id="208cd0e65e"><path d="M 192 125 L 358.238281 125 L 358.238281 210 L 192 210 Z M 192 125 " clip-rule="nonzero"/></clipPath><clipPath id="0b0a034ee1"><path d="M 192 64.109375 L 358.238281 64.109375 L 358.238281 172 L 192 172 Z M 192 64.109375 " clip-rule="nonzero"/></clipPath></defs><rect x="-37.5" width="450" fill="#ffffff" y="-37.499999" height="449.999989" fill-opacity="1"/><rect x="-37.5" width="450" fill="#ffffff" y="-37.499999" height="449.999989" fill-opacity="1"/><rect x="-37.5" width="450" fill="#ffffff" y="-37.499999" height="449.999989" fill-opacity="1"/><g clip-path="url(#d5e83d69d3)"><path fill="#545454" d="M 16.988281 310.726562 L 16.988281 145.980469 L 66.945312 121.511719 L 66.945312 148.84375 L 42.445312 162 L 42.445312 310.726562 Z M 132.945312 310.726562 L 132.945312 88.523438 L 182.902344 64.050781 L 182.902344 91.382812 L 158.402344 103.652344 L 158.402344 310.796875 L 132.945312 310.796875 Z M 75.410156 310.726562 L 75.410156 116.742188 L 124.414062 92.269531 L 124.414062 119.601562 L 99.910156 131.871094 L 99.910156 310.726562 Z M 75.410156 310.726562 " fill-opacity="1" fill-rule="nonzero"/></g><g clip-path="url(#81ef4e4b3e)"><path fill="#545454" d="M 358.238281 298.457031 L 358.238281 310.726562 L 192.320312 310.726562 L 192.320312 286.257812 Z M 358.238281 298.457031 " fill-opacity="1" fill-rule="nonzero"/></g><g clip-path="url(#6da6dc43e4)"><path fill="#545454" d="M 358.238281 262.671875 C 358.238281 267.375 358.238281 273.035156 358.238281 277.738281 C 302.613281 272.078125 247.945312 262.671875 192.320312 257.015625 C 192.320312 249.519531 192.320312 241 192.320312 232.546875 C 247.945312 241.953125 302.613281 254.222656 358.238281 262.671875 Z M 358.238281 262.671875 " fill-opacity="1" fill-rule="nonzero"/></g><g clip-path="url(#78944a4f8f)"><path fill="#545454" d="M 358.238281 226.003906 C 358.238281 231.660156 358.238281 237.316406 358.238281 242.976562 C 302.613281 232.613281 247.945312 214.757812 192.320312 203.441406 C 192.320312 195.945312 192.320312 187.421875 192.320312 178.972656 C 247.945312 193.011719 302.613281 212.78125 358.238281 226.003906 Z M 358.238281 226.003906 " fill-opacity="1" fill-rule="nonzero"/></g><g clip-path="url(#208cd0e65e)"><path fill="#545454" d="M 358.238281 190.21875 C 358.238281 196.828125 358.238281 203.375 358.238281 209.984375 C 302.613281 193.011719 247.945312 166.703125 192.320312 150.683594 C 192.320312 142.234375 192.320312 133.710938 192.320312 125.261719 C 247.945312 144.074219 302.613281 172.292969 358.238281 190.21875 Z M 358.238281 190.21875 " fill-opacity="1" fill-rule="nonzero"/></g><g clip-path="url(#0b0a034ee1)"><path fill="#545454" d="M 358.238281 145.980469 L 358.238281 171.40625 L 192.320312 91.382812 L 192.320312 64.050781 Z M 358.238281 145.980469 " fill-opacity="1" fill-rule="nonzero"/></g></svg>